HIERARCHY
ROOT Hips
{
     OFFSET 11.22580 95.61000 18.55810
     CHANNELS 6 Xposition Yposition Zposition Zrotation Xrotation Yrotation
     JOINT Spine
     {
          OFFSET 0.00000 11.89050 0.00000
          CHANNELS 3 Zrotation Xrotation Yrotation
          JOINT Spine1
          {
               OFFSET 0.00000 25.65740 0.12766
               CHANNELS 3 Zrotation Xrotation Yrotation
               JOINT HEad
               {
                    OFFSET -0.00000 8.73416 0.01134
                    CHANNELS 3 Zrotation Xrotation Yrotation
                    End Site
                    {
                         OFFSET -0.29000 12.77420 2.51395
                    }
               }
               JOINT LeftShoulder1
               {
                    OFFSET 8.99000 -0.36225 -0.22000
                    CHANNELS 3 Zrotation Xrotation Yrotation
                    JOINT LeftArm
                    {
                         OFFSET 10.28270 -0.00338 0.32212
                         CHANNELS 3 Zrotation Xrotation Yrotation
                         JOINT LeftForeArm
                         {
                              OFFSET 32.76690 0.09914 -1.42434
                              CHANNELS 3 Zrotation Xrotation Yrotation
                              JOINT LeftHand
                              {
                                   OFFSET 27.56430 0.08536 1.02216
                                   CHANNELS 3 Zrotation Xrotation Yrotation
                                   End Site
                                   {
                                        OFFSET 16.74430 -0.60000 1.50291
                                   }
                              }
                         }
                    }
               }
               JOINT RightShoulder
               {
                    OFFSET -8.99000 -0.36225 -0.22000
                    CHANNELS 3 Zrotation Xrotation Yrotation
                    JOINT RightArm
                    {
                         OFFSET -10.28270 -0.00338 0.32212
                         CHANNELS 3 Zrotation Xrotation Yrotation
                         JOINT RightForeArm
                         {
                              OFFSET -32.89710 0.09914 -1.42434
                              CHANNELS 3 Zrotation Xrotation Yrotation
                              JOINT RightHand
                              {
                                   OFFSET -27.49210 0.08536 1.02216
                                   CHANNELS 3 Zrotation Xrotation Yrotation
                                   End Site
                                   {
                                        OFFSET -16.63120 -0.60000 1.50291
                                   }
                              }
                         }
                    }
               }
          }
     }
     JOINT LeftUpLeg
     {
          OFFSET 8.94580 -8.66707 0.10165
          CHANNELS 3 Zrotation Xrotation Yrotation
          JOINT LeftLeg
          {
               OFFSET -0.00000 -44.42270 1.37270
               CHANNELS 3 Zrotation Xrotation Yrotation
               JOINT LeftFoot
               {
                    OFFSET -0.25355 -42.09240 -1.46059
                    CHANNELS 3 Zrotation Xrotation Yrotation
                    JOINT LeftToes
                    {
                         OFFSET -0.04000 -4.41509 8.49910
                         CHANNELS 3 Zrotation Xrotation Yrotation
                         End Site
                         {
                              OFFSET 0.08000 -0.04745 9.77979
                         }
                    }
               }
          }
     }
     JOINT RightUpLeg
     {
          OFFSET -8.94580 -8.66707 0.10165
          CHANNELS 3 Zrotation Xrotation Yrotation
          JOINT RightLeg
          {
               OFFSET 0.00000 -44.42270 1.37270
               CHANNELS 3 Zrotation Xrotation Yrotation
               JOINT RightFoot
               {
                    OFFSET 0.25355 -42.09240 -1.46059
                    CHANNELS 3 Zrotation Xrotation Yrotation
                    JOINT RightToes
                    {
                         OFFSET 0.04000 -4.41509 8.49910
                         CHANNELS 3 Zrotation Xrotation Yrotation
                         End Site
                         {
                              OFFSET -0.08000 -0.13745 9.77979
                         }
                    }
               }
          }
     }
}
MOTION
Frames: 8
Frame Time: 0.01667
-0.12398 95.66930 27.19330 -12.25860 4.25176 -128.36800 -10.33970 10.83500 -1.73415 -4.49959 21.54980 -5.69068 5.42280 -6.19912 -1.95736 -0.00000 -0.00000 0.00000 -110.94000 -51.26650 -87.19910 -40.16820 49.50420 -71.93180 21.46010 6.04182 -16.71990 20.87070 1.02320 2.05593 84.23870 -6.79458 66.72150 18.15080 34.60960 100.71900 13.98620 11.58990 8.93426 18.35420 -11.01020 -6.38887 -38.77210 32.69470 85.56720 0.73441 9.35024 -0.18033 -2.21580 -38.06670 -67.65750 -16.81970 2.71967 5.19725 37.69460 9.02854 -44.86070 -50.75280 6.15399 6.46867 23.49350 -60.98960 34.99730 
-0.91211 95.34750 27.54870 -11.94810 5.15158 -131.13600 -9.19038 11.08380 -1.91276 -4.52309 21.73770 -5.33303 4.75043 -6.14904 -0.84569 -0.00000 -0.00000 0.00000 -112.19300 -51.82430 -88.69800 -40.60910 49.70700 -71.30580 21.64840 5.98279 -16.84100 20.33430 1.00158 2.04408 84.48820 -6.37646 66.96210 18.09270 34.71800 100.61200 14.23550 11.62400 8.97503 18.64080 -11.67090 -7.71720 -37.06270 29.46520 83.83770 0.25216 9.12040 -0.10712 -1.96156 -37.75880 -67.06780 -16.45370 1.91977 5.06660 37.92580 10.91390 -45.93230 -50.51210 5.76662 6.24950 24.14390 -61.50030 35.61100 
-1.79837 95.00760 27.83550 -11.51280 5.99973 -134.01801 -8.02316 11.24470 -2.03854 -4.49322 21.85390 -4.96556 3.98468 -6.16556 0.35242 -0.00000 -0.00000 0.00000 -113.45400 -52.57170 -90.15080 -41.10050 49.76930 -70.79180 21.83780 5.90989 -17.03090 19.71330 0.98501 2.06812 84.79960 -5.88513 67.34680 17.82380 34.77990 100.53700 14.42840 11.65490 9.03932 19.10440 -11.98310 -8.75452 -35.19930 25.99130 81.50470 -0.23492 9.09910 -0.03597 -1.43639 -37.07750 -65.87220 -16.10780 1.20356 4.89137 38.23960 12.62000 -46.89570 -50.38700 5.26905 5.99625 24.40520 -61.97350 35.55210 
-2.76583 94.66060 28.04270 -10.99560 6.76808 -136.97000 -6.89826 11.32050 -2.11556 -4.44672 21.90080 -4.61468 3.24136 -6.26468 1.61703 -0.00000 -0.00000 0.00000 -115.06700 -53.60530 -91.86180 -41.70660 49.97330 -70.30970 22.06380 5.82145 -17.26010 19.06710 0.98201 2.16098 85.15100 -5.38668 67.82380 17.49560 34.78810 100.42700 14.58820 11.67710 9.06576 19.72890 -11.93030 -9.53040 -33.30700 22.27600 78.73040 -0.57769 9.31260 0.01376 -0.69407 -36.02990 -64.16310 -15.81090 0.56033 4.64952 38.62440 14.22380 -47.69920 -50.30690 4.59860 5.66855 24.15520 -62.31180 34.73460 
-3.79525 94.33540 28.17580 -10.41760 7.45682 -139.93401 -5.82196 11.32270 -2.16013 -4.40224 21.88380 -4.29738 2.59345 -6.37841 2.89762 -0.00000 -0.00000 0.00000 -117.24500 -54.92620 -94.04730 -42.46620 50.46900 -69.79720 22.31140 5.72882 -17.48340 18.51590 0.99473 2.31751 85.47040 -4.93778 68.31910 17.26280 34.76910 100.20200 14.74690 11.69410 9.05374 20.49360 -11.52640 -10.04750 -31.44480 18.37540 75.70440 -0.65727 9.77935 0.02536 0.20688 -34.58650 -62.10680 -15.55540 0.02806 4.34748 39.01730 15.67590 -48.32730 -50.26660 3.81028 5.29104 23.50430 -62.48700 33.38850 
-4.86790 94.04710 28.24790 -9.81436 8.06528 -142.87199 -4.84158 11.26760 -2.17494 -4.36438 21.81180 -4.01407 2.04036 -6.43949 4.12367 -0.00000 -0.00000 0.00000 -119.94800 -56.43870 -96.71600 -43.33750 51.20680 -69.26600 22.54120 5.64769 -17.66130 18.09990 1.01808 2.50789 85.71300 -4.54402 68.76290 17.17400 34.73990 99.84980 14.88930 11.70970 9.04572 21.32880 -10.84610 -10.26070 -29.64210 14.49950 72.57660 -0.50824 10.45270 0.00169 1.20857 -32.69650 -59.92450 -15.36070 -0.38750 4.04850 39.36780 16.93580 -48.93120 -50.25080 3.00443 4.90843 22.87500 -62.59380 32.15460 
-5.97208 93.80370 28.27280 -9.22629 8.60989 -145.76401 -3.99487 11.17390 -2.15821 -4.32605 21.69800 -3.75351 1.58231 -6.43205 5.25221 -0.00000 -0.00000 0.00000 -122.99800 -58.04010 -99.73010 -44.27980 52.06470 -68.72000 22.73590 5.58281 -17.78950 17.77640 1.04264 2.69249 85.86610 -4.17468 69.09430 17.18890 34.68910 99.42810 14.96850 11.72390 9.08213 22.11880 -10.25710 -10.15220 -27.99540 11.45570 69.53920 -0.56415 11.09850 0.00977 2.24121 -30.37130 -57.84660 -15.25730 -0.66121 3.84359 39.65160 17.92840 -49.71910 -50.26980 2.26814 4.56235 22.71830 -62.77230 31.69170 
-7.11062 93.59410 28.25510 -8.67960 9.11507 -148.57500 -3.29343 11.06720 -2.12154 -4.28190 21.56870 -3.51618 1.25156 -6.36499 6.28350 -0.00000 -0.00000 0.00000 -126.39500 -59.67930 -103.07500 -45.37080 53.00690 -68.04260 22.90830 5.52512 -17.90220 17.48270 1.05665 2.82309 85.94750 -3.77911 69.29240 17.23540 34.60440 99.01980 14.95830 11.73430 9.16674 22.80370 -9.82153 -9.93855 -26.51660 9.34821 66.80580 -0.93984 11.56150 0.07200 3.21729 -27.78270 -56.03020 -15.26660 -0.79115 3.74743 39.88590 18.68730 -50.72150 -50.33980 1.62426 4.26452 23.08350 -63.08620 32.01830 
